<svg width="216" height="238" viewBox="0 0 216 238" fill="none" xmlns="http://www.w3.org/2000/svg">
<path d="M8.27362 237.396C16.997 233.431 25.3231 229.069 33.6506 224.311C41.1844 220.346 50.3043 216.381 56.6485 210.433C60.2172 207.261 56.6485 200.52 51.8903 202.106C51.8903 202.106 51.4938 202.106 51.4938 202.503C50.3043 201.71 49.5106 200.917 48.3217 199.727C48.3217 199.331 47.9258 198.538 47.9258 198.141C47.5293 197.348 46.7363 196.555 45.9426 195.762C57.4415 174.35 68.1475 152.938 81.629 133.113C85.5942 127.165 89.9565 121.614 95.1105 116.459C107.799 136.681 128.418 160.076 153.399 155.714C186.31 149.766 168.467 114.477 151.416 102.581C131.194 87.9099 113.747 88.7029 96.3007 102.581C88.3704 89.0994 82.8185 74.0325 83.6122 59.3608C84.8018 24.0709 116.523 18.1238 143.09 27.2437C139.124 37.5531 137.935 49.4479 140.314 59.7579C144.279 78.3942 172.828 95.0478 189.482 81.9628C205.739 68.8778 175.207 35.5705 165.294 28.8291C162.519 26.8465 159.347 24.8646 156.175 23.2785C156.571 22.882 156.571 22.4848 156.968 22.0889C175.207 -6.46016 199.395 18.1238 210.497 38.3461C212.083 41.5182 216.445 38.7426 215.255 35.5705C206.136 14.5552 187.499 -10.0288 162.519 4.24577C156.571 7.8144 151.416 12.9691 147.848 19.3133C126.039 10.59 100.662 10.59 84.8018 30.4158C65.769 54.2067 77.6638 85.1349 90.3523 108.133C89.9565 108.529 89.9565 108.529 89.5593 108.926C66.9579 130.734 53.0799 161.662 38.8053 189.418C36.0297 187.436 32.8569 185.453 30.082 183.471C28.0988 182.281 25.3232 182.678 23.7377 184.264C12.2388 197.745 3.51544 214.002 0.739838 231.846C-0.449722 236.207 3.9113 239.379 8.27362 237.396ZM111.368 103.375C126.435 94.6513 141.503 105.357 152.605 115.667C167.276 129.148 163.311 150.956 140.71 146.594C129.211 144.215 120.091 133.906 112.557 125.579C108.592 121.217 104.626 116.063 101.058 110.512C104.23 107.736 107.799 105.357 111.368 103.375ZM151.812 31.2088C162.518 36.7594 170.448 44.6903 176.793 54.6026C179.568 58.9642 181.947 63.7224 183.137 68.8771C187.102 82.3587 165.69 75.6179 160.139 72.8423C145.071 64.5155 146.261 45.4827 151.812 31.2088ZM28.4959 194.573C28.8924 194.573 28.8924 194.969 29.2889 194.969C29.2889 196.159 30.0826 197.348 31.668 198.141C34.4437 199.331 37.2193 200.917 39.9955 202.503C41.1851 203.296 43.5642 205.675 43.5642 204.882C43.5642 205.278 43.9607 205.675 44.3572 205.675C39.9962 208.054 35.6339 211.226 31.2728 213.605C25.7216 216.777 19.7739 219.95 13.8255 223.122C16.5998 213.209 21.7545 203.296 28.4959 194.573Z" fill="black"/>
</svg>
